<svg xmlns="http://www.w3.org/2000/svg" width="240" height="60" viewBox="0 0 240 60">
  <style>
    .icon-bg { fill: #3498db; }
    .icon-fg { fill: white; }
    .icon-bg:hover { fill: #2c3e50; }
  </style>
  
  <!-- Facebook -->
  <g id="facebook">
    <circle class="icon-bg" cx="30" cy="30" r="25"/>
    <path class="icon-fg" d="M37,30h-5v15h-6V30h-4v-5h4v-3.5c0-4.3,1.8-6.5,7-6.5h4v5h-3c-1.4,0-2,0.6-2,1.5V25h5L37,30z"/>
  </g>
  
  <!-- Twitter/X -->
  <g id="twitter" transform="translate(60, 0)">
    <circle class="icon-bg" cx="30" cy="30" r="25"/>
    <path class="icon-fg" d="M45,20c-1.1,0.5-2.3,0.8-3.5,1c1.3-0.8,2.2-2,2.7-3.4c-1.2,0.7-2.5,1.2-3.9,1.5c-1.1-1.2-2.7-1.9-4.5-1.9c-3.4,0-6.1,2.7-6.1,6.1c0,0.5,0.1,0.9,0.2,1.4c-5.1-0.3-9.6-2.7-12.6-6.4c-0.5,0.9-0.8,2-0.8,3.1c0,2.1,1.1,4,2.7,5.1c-1,0-1.9-0.3-2.7-0.8v0.1c0,3,2.1,5.4,4.9,6c-0.5,0.1-1.1,0.2-1.6,0.2c-0.4,0-0.8,0-1.2-0.1c0.8,2.4,3,4.2,5.7,4.2c-2.1,1.6-4.7,2.6-7.5,2.6c-0.5,0-1,0-1.5-0.1c2.7,1.7,5.9,2.7,9.3,2.7c11.1,0,17.2-9.2,17.2-17.2c0-0.3,0-0.5,0-0.8C43.1,22.3,44.2,21.2,45,20z"/>
  </g>
  
  <!-- Instagram -->
  <g id="instagram" transform="translate(120, 0)">
    <circle class="icon-bg" cx="30" cy="30" r="25"/>
    <path class="icon-fg" d="M38.5,18h-17c-1.9,0-3.5,1.6-3.5,3.5v17c0,1.9,1.6,3.5,3.5,3.5h17c1.9,0,3.5-1.6,3.5-3.5v-17C42,19.6,40.4,18,38.5,18z M30,37c-3.9,0-7-3.1-7-7s3.1-7,7-7s7,3.1,7,7S33.9,37,30,37z M37,23c-1.1,0-2-0.9-2-2s0.9-2,2-2s2,0.9,2,2S38.1,23,37,23z"/>
    <circle class="icon-fg" cx="30" cy="30" r="4"/>
  </g>
  
  <!-- YouTube -->
  <g id="youtube" transform="translate(180, 0)">
    <circle class="icon-bg" cx="30" cy="30" r="25"/>
    <path class="icon-fg" d="M44,24.5c0-3.1-2.5-5.5-5.5-5.5h-17c-3.1,0-5.5,2.5-5.5,5.5v11c0,3.1,2.5,5.5,5.5,5.5h17c3.1,0,5.5-2.5,5.5-5.5V24.5z M27,35V25l8,5L27,35z"/>
  </g>
</svg>