<svg xmlns="http://www.w3.org/2000/svg" width="400" height="200" viewBox="0 0 400 200">
  <style>
    .icon { fill: #3498db; }
    .icon-accent { fill: #2c3e50; }
  </style>
  
  <!-- Books Icon -->
  <g id="books-icon" transform="translate(20, 20)">
    <rect class="icon" x="0" y="20" width="60" height="80" rx="4"/>
    <rect class="icon-accent" x="5" y="25" width="25" height="70"/>
    <rect class="icon-accent" x="30" y="25" width="25" height="70"/>
    <rect class="icon" x="10" y="10" width="60" height="80" rx="4"/>
    <rect fill="white" x="15" y="15" width="25" height="70"/>
    <rect fill="white" x="40" y="15" width="25" height="70"/>
  </g>
  
  <!-- Events Icon -->
  <g id="events-icon" transform="translate(120, 20)">
    <rect class="icon" x="10" y="20" width="60" height="70" rx="5"/>
    <rect class="icon-accent" x="10" y="20" width="60" height="20" rx="5"/>
    <circle fill="white" cx="25" cy="50" r="3"/>
    <circle fill="white" cx="35" cy="50" r="3"/>
    <circle fill="white" cx="45" cy="50" r="3"/>
    <circle fill="white" cx="55" cy="50" r="3"/>
    <circle fill="white" cx="25" cy="65" r="3"/>
    <circle fill="white" cx="35" cy="65" r="3"/>
    <circle class="icon-accent" cx="45" cy="65" r="3"/>
    <circle fill="white" cx="55" cy="65" r="3"/>
    <circle fill="white" cx="25" cy="80" r="3"/>
    <circle fill="white" cx="35" cy="80" r="3"/>
    <circle fill="white" cx="45" cy="80" r="3"/>
    <circle fill="white" cx="55" cy="80" r="3"/>
  </g>
  
  <!-- Community Icon -->
  <g id="community-icon" transform="translate(220, 20)">
    <circle class="icon" cx="30" cy="35" r="12"/>
    <circle class="icon" cx="50" cy="35" r="12"/>
    <circle class="icon" cx="70" cy="35" r="12"/>
    <path class="icon" d="M15,70 Q30,55 45,70 L45,90 L15,90 Z"/>
    <path class="icon" d="M35,70 Q50,55 65,70 L65,90 L35,90 Z"/>
    <path class="icon" d="M55,70 Q70,55 85,70 L85,90 L55,90 Z"/>
  </g>
  
  <!-- Learning Icon -->
  <g id="learning-icon" transform="translate(320, 20)">
    <rect class="icon" x="10" y="30" width="60" height="50" rx="5"/>
    <rect fill="white" x="15" y="35" width="50" height="40"/>
    <line x1="20" y1="45" x2="60" y2="45" stroke="#3498db" stroke-width="2"/>
    <line x1="20" y1="55" x2="60" y2="55" stroke="#3498db" stroke-width="2"/>
    <line x1="20" y1="65" x2="50" y2="65" stroke="#3498db" stroke-width="2"/>
    <circle class="icon-accent" cx="40" cy="20" r="8"/>
    <path class="icon-accent" d="M32,15 L40,10 L48,15 L45,20 L35,20 Z"/>
  </g>
  
  <!-- Newsletter Icon -->
  <g id="newsletter-icon" transform="translate(20, 120)">
    <rect class="icon" x="10" y="20" width="60" height="50" rx="3"/>
    <path fill="white" d="M10,20 L40,45 L70,20 Z"/>
    <line x1="10" y1="70" x2="30" y2="50" stroke="white" stroke-width="2"/>
    <line x1="70" y1="70" x2="50" y2="50" stroke="white" stroke-width="2"/>
  </g>
  
  <!-- Contact Icon -->
  <g id="contact-icon" transform="translate(120, 120)">
    <circle class="icon" cx="40" cy="40" r="25"/>
    <circle fill="white" cx="40" cy="35" r="8"/>
    <path fill="white" d="M25,55 Q40,45 55,55 L55,65 L25,65 Z"/>
    <circle class="icon-accent" cx="65" cy="25" r="15"/>
    <path fill="white" d="M58,20 L58,30 M63,25 L67,25"/>
  </g>
  
  <!-- Search Icon -->
  <g id="search-icon" transform="translate(220, 120)">
    <circle class="icon" cx="35" cy="35" r="20" fill="none" stroke="#3498db" stroke-width="4"/>
    <line x1="50" y1="50" x2="65" y2="65" stroke="#3498db" stroke-width="4" stroke-linecap="round"/>
  </g>
  
  <!-- Settings Icon -->
  <g id="settings-icon" transform="translate(320, 120)">
    <circle class="icon" cx="40" cy="40" r="25"/>
    <circle fill="white" cx="40" cy="40" r="10"/>
    <rect class="icon-accent" x="38" y="15" width="4" height="10"/>
    <rect class="icon-accent" x="38" y="65" width="4" height="10"/>
    <rect class="icon-accent" x="15" y="38" width="10" height="4"/>
    <rect class="icon-accent" x="65" y="38" width="10" height="4"/>
    <rect class="icon-accent" x="25" y="25" width="7" height="7" transform="rotate(45 28.5 28.5)"/>
    <rect class="icon-accent" x="48" y="48" width="7" height="7" transform="rotate(45 51.5 51.5)"/>
    <rect class="icon-accent" x="48" y="25" width="7" height="7" transform="rotate(45 51.5 28.5)"/>
    <rect class="icon-accent" x="25" y="48" width="7" height="7" transform="rotate(45 28.5 51.5)"/>
  </g>
</svg>