<svg xmlns="http://www.w3.org/2000/svg" width="1200" height="600" viewBox="0 0 1200 600">
  <defs>
    <linearGradient id="heroGradient" x1="0%" y1="0%" x2="100%" y2="100%">
      <stop offset="0%" style="stop-color:#3498db;stop-opacity:1" />
      <stop offset="50%" style="stop-color:#2c3e50;stop-opacity:1" />
      <stop offset="100%" style="stop-color:#34495e;stop-opacity:1" />
    </linearGradient>
    <pattern id="bookPattern" x="0" y="0" width="100" height="100" patternUnits="userSpaceOnUse">
      <rect width="100" height="100" fill="rgba(255,255,255,0.05)"/>
      <rect x="20" y="20" width="60" height="80" fill="rgba(255,255,255,0.1)" rx="3"/>
      <rect x="25" y="25" width="25" height="70" fill="rgba(255,255,255,0.05)"/>
      <rect x="50" y="25" width="25" height="70" fill="rgba(255,255,255,0.05)"/>
    </pattern>
  </defs>
  
  <!-- Background -->
  <rect width="1200" height="600" fill="url(#heroGradient)"/>
  
  <!-- Pattern overlay -->
  <rect width="1200" height="600" fill="url(#bookPattern)" opacity="0.3"/>
  
  <!-- Decorative elements -->
  <circle cx="100" cy="100" r="80" fill="rgba(255,255,255,0.1)"/>
  <circle cx="1100" cy="500" r="120" fill="rgba(255,255,255,0.08)"/>
  <circle cx="200" cy="450" r="60" fill="rgba(255,255,255,0.12)"/>
  <circle cx="1000" cy="150" r="90" fill="rgba(255,255,255,0.09)"/>
  
  <!-- Tamil script decorative elements -->
  <g transform="translate(900, 50)" opacity="0.2">
    <path d="M0,0 Q20,10 40,0 Q60,20 80,10 Q100,30 120,20" stroke="rgba(255,255,255,0.3)" stroke-width="3" fill="none"/>
    <path d="M0,40 Q20,50 40,40 Q60,60 80,50 Q100,70 120,60" stroke="rgba(255,255,255,0.3)" stroke-width="3" fill="none"/>
  </g>
  
  <!-- Book stack silhouette -->
  <g transform="translate(50, 400)" opacity="0.15">
    <rect x="0" y="0" width="80" height="120" fill="white" rx="4"/>
    <rect x="10" y="10" width="60" height="100" fill="rgba(0,0,0,0.2)" rx="2"/>
    <rect x="15" y="15" width="25" height="90" fill="rgba(255,255,255,0.3)"/>
    <rect x="40" y="15" width="25" height="90" fill="rgba(255,255,255,0.3)"/>
    
    <rect x="90" y="20" width="80" height="120" fill="white" rx="4"/>
    <rect x="100" y="30" width="60" height="100" fill="rgba(0,0,0,0.2)" rx="2"/>
    <rect x="105" y="35" width="25" height="90" fill="rgba(255,255,255,0.3)"/>
    <rect x="130" y="35" width="25" height="90" fill="rgba(255,255,255,0.3)"/>
    
    <rect x="180" y="40" width="80" height="120" fill="white" rx="4"/>
    <rect x="190" y="50" width="60" height="100" fill="rgba(0,0,0,0.2)" rx="2"/>
    <rect x="195" y="55" width="25" height="90" fill="rgba(255,255,255,0.3)"/>
    <rect x="220" y="55" width="25" height="90" fill="rgba(255,255,255,0.3)"/>
  </g>
</svg>